<?xml version="1.0" encoding="utf-8"?>
<!-- Generator: Adobe Illustrator 27.5.0, SVG Export Plug-In . SVG Version: 6.00 Build 0)  -->
<svg version="1.1" xmlns="http://www.w3.org/2000/svg" xmlns:xlink="http://www.w3.org/1999/xlink" x="0px" y="0px"
	 viewBox="0 0 500 500" style="enable-background:new 0 0 500 500;" xml:space="preserve">
<g id="BACKGROUND">
	<rect style="fill:#FFFFFF;" width="500" height="500"/>
</g>
<g id="OBJECTS">
	<g>
		<path style="fill:#F0F5F7;" d="M418.216,419.316H81.784c-8.989,0-16.276-7.287-16.276-16.276l0,0
			c0-8.989,7.287-16.276,16.276-16.276h336.433c8.989,0,16.276,7.287,16.276,16.276l0,0
			C434.492,412.029,427.205,419.316,418.216,419.316z"/>
		<g>
			<path style="fill:#C3D3DD;" d="M68.66,304.666v30.159c0,7.47,6.056,13.526,13.526,13.526h334.72
				c7.47,0,13.526-6.056,13.526-13.526v-30.159H68.66z"/>
			<path style="fill:#C3D3DD;" d="M313.34,396.395c0.343,3.612-2.479,6.645-6.012,6.645H191.763c-3.533,0-6.354-3.032-6.012-6.645
				c0.145-1.569,0.923-2.927,2.057-3.902c1.147-0.976,2.637-1.556,4.219-1.556h115.038
				C310.229,390.937,313.05,393.258,313.34,396.395z"/>
			<path style="fill:#A5B7C6;" d="M307.065,390.937H192.026c5.84,0,10.573-4.733,10.573-10.56v-32.023h93.892v32.023
				C296.492,386.205,301.224,390.937,307.065,390.937z"/>
			<path style="fill:#282860;" d="M430.432,147.286c0-7.47-6.056-13.526-13.526-13.526H82.186c-7.47,0-13.526,6.056-13.526,13.526
				v181.187h361.772V147.286z"/>
			<linearGradient id="SVGID_1_" gradientUnits="userSpaceOnUse" x1="153.0087" y1="135.0258" x2="263.1796" y2="245.1967">
				<stop  offset="0" style="stop-color:#C6DFF2"/>
				<stop  offset="0.999" style="stop-color:#5D8BFC"/>
			</linearGradient>
			<rect x="78.616" y="144.307" style="fill:url(#SVGID_1_);" width="341.859" height="174.512"/>
			
				<linearGradient id="SVGID_00000119079580385982978420000007848197492838825384_" gradientUnits="userSpaceOnUse" x1="270.5183" y1="127.2628" x2="390.9535" y2="335.8627">
				<stop  offset="0" style="stop-color:#C6DFF2"/>
				<stop  offset="0.999" style="stop-color:#5D8BFC"/>
			</linearGradient>
			
				<rect x="240.997" y="144.307" style="fill:url(#SVGID_00000119079580385982978420000007848197492838825384_);" width="179.478" height="174.512"/>
			<g>
				<defs>
					
						<rect id="SVGID_00000177453169282439198270000001753603726004720803_" x="78.616" y="144.307" width="341.859" height="174.512"/>
				</defs>
				<clipPath id="SVGID_00000130632236391180937530000012174334532158213014_">
					<use xlink:href="#SVGID_00000177453169282439198270000001753603726004720803_"  style="overflow:visible;"/>
				</clipPath>
				<g style="clip-path:url(#SVGID_00000130632236391180937530000012174334532158213014_);">
					<g>
						
							<linearGradient id="SVGID_00000078007266809942852310000015627412072566043546_" gradientUnits="userSpaceOnUse" x1="1807.8998" y1="11.2555" x2="1807.8998" y2="59.4006" gradientTransform="matrix(-0.9613 -0.2755 -0.2755 0.9613 2043.6569 771.362)">
							<stop  offset="0" style="stop-color:#26E6FF"/>
							<stop  offset="0.4856" style="stop-color:#4189FF"/>
							<stop  offset="0.8345" style="stop-color:#534CFF"/>
							<stop  offset="1" style="stop-color:#5A35FF"/>
						</linearGradient>
						<path style="fill:url(#SVGID_00000078007266809942852310000015627412072566043546_);" d="M280.626,304.314
							c2.941-0.311,4.225,6.272,4.225,6.272c0.267-4.027,0.023-14.748,4.344-15.64c3.507-0.723,5.112,4.03,5.028,7.183
							c0.458-3.49,1.03-14.694,4.813-14.699c3.306-0.004,3.508,5.503,2.815,8.365c1.465-2.669,5.713-12.005,10.458-8.669
							c4.52,3.333-1.882,10.915-4.493,13.57c2.273-1.285,7.624-3.642,8.385,0.158c1.233,6.16-13.982,9.248-13.982,9.248
							c0,0.001,8.146,0.56,6.315,4.955c-2.591,6.217-11.137,6.49-16.612,4.679c7.902,2.404,4.333,9.144-2.205,9.718
							c-5.496,0.483-10.908-2.145-14.065-6.657C274.01,318.585,276.158,304.787,280.626,304.314z"/>
						
							<linearGradient id="SVGID_00000164502601744239116400000012759767685857685171_" gradientUnits="userSpaceOnUse" x1="1791.6707" y1="38.6668" x2="1831.0031" y2="38.6668" gradientTransform="matrix(-0.9613 -0.2755 -0.2755 0.9613 2043.6569 771.362)">
							<stop  offset="0" style="stop-color:#5277FF"/>
							<stop  offset="1" style="stop-color:#30009F"/>
						</linearGradient>
						<path style="fill:url(#SVGID_00000164502601744239116400000012759767685857685171_);" d="M280.224,313.786
							c-0.079,1.085-0.105,2.176-0.091,3.252c0.011,0.832,0.08,1.658,0.184,2.471c3.602-2.116,7.053-4.487,10.32-7.09
							c-0.258-1.106-0.483-2.233-0.626-3.357c-0.157-1.237-0.256-2.522-0.297-3.784c-0.041-1.262-0.02-2.532,0.052-3.791
							c0.072-1.258,0.185-2.51,0.394-3.742c-0.165,1.236-0.232,2.485-0.257,3.735c-0.025,1.251,0.002,2.508,0.091,3.751
							c0.089,1.243,0.238,2.502,0.444,3.706c0.177,1.033,0.427,2.065,0.708,3.072c2.539-2.029,5.008-4.263,7.28-6.586
							c-0.124-1.248-0.238-2.495-0.23-3.761c-0.027-0.655,0.017-1.319,0.016-1.974c0.043-0.66,0.062-1.322,0.117-1.973
							c0.11-1.296,0.241-2.619,0.433-3.914c0.192-1.294,0.417-2.582,0.723-3.849c-0.262,1.273-0.441,2.561-0.587,3.853
							c-0.146,1.292-0.229,2.607-0.291,3.889c-0.031,0.644-0.026,1.297-0.044,1.948c0.025,0.644,0.006,1.297,0.058,1.937
							c0.036,1.122,0.174,2.221,0.326,3.314c4.409-4.713,8.258-9.633,11.777-15.038c-3.389,5.519-7.123,10.56-11.422,15.409
							c1.051,0.137,2.129,0.208,3.236,0.16c1.274-0.055,2.574-0.198,3.881-0.463c1.304-0.265,2.631-0.615,3.947-1.067
							c1.317-0.453,2.637-0.994,3.939-1.654c-1.292,0.708-2.609,1.301-3.928,1.804c-1.319,0.504-2.653,0.905-3.971,1.221
							c-1.321,0.316-2.642,0.509-3.944,0.612c-1.244,0.098-2.464,0.052-3.659-0.077c-2.343,2.404-4.7,4.652-7.211,6.879
							c0.819,0.578,1.725,1.078,2.695,1.436c1.124,0.415,2.355,0.71,3.614,0.875c1.261,0.165,2.581,0.219,3.921,0.165
							c1.34-0.053,2.712-0.202,4.102-0.49c-1.395,0.34-2.779,0.54-4.137,0.644c-1.358,0.104-2.702,0.1-3.995-0.02
							c-1.29-0.12-2.562-0.372-3.737-0.755c-1.049-0.342-2.043-0.843-2.947-1.444c-3.224,2.71-6.639,5.193-10.212,7.422
							c0.744,0.563,1.526,1.093,2.363,1.556c1.047,0.58,2.149,1.11,3.304,1.55c1.153,0.44,2.358,0.827,3.601,1.133
							c1.244,0.306,2.528,0.547,3.857,0.688c-1.35-0.091-2.661-0.284-3.934-0.544c-1.272-0.26-2.51-0.604-3.699-1.004
							c-1.191-0.401-2.333-0.894-3.424-1.444c-0.923-0.465-1.789-1.01-2.616-1.596c-4.22,2.564-8.636,4.851-13.227,6.681
							c-0.223-0.589-0.334-0.884-0.557-1.473c4.569-1.681,8.979-3.819,13.203-6.232c-0.075-0.906-0.109-1.82-0.077-2.732
							c0.039-1.1,0.117-2.207,0.247-3.302c0.13-1.094,0.282-2.188,0.463-3.269c0.181-1.08,0.38-2.156,0.619-3.217
							c-0.194,1.066-0.347,2.144-0.481,3.223C280.406,311.612,280.303,312.702,280.224,313.786z"/>
					</g>
				</g>
				<g style="clip-path:url(#SVGID_00000130632236391180937530000012174334532158213014_);">
					<g>
						
							<linearGradient id="SVGID_00000174598617242026209900000006054240423699989888_" gradientUnits="userSpaceOnUse" x1="1898.8519" y1="32.5037" x2="1898.8519" y2="80.6491" gradientTransform="matrix(0.9764 0.216 -0.216 0.9764 -1601.0132 -165.3907)">
							<stop  offset="0" style="stop-color:#26E6FF"/>
							<stop  offset="0.4856" style="stop-color:#4189FF"/>
							<stop  offset="0.8345" style="stop-color:#534CFF"/>
							<stop  offset="1" style="stop-color:#5A35FF"/>
						</linearGradient>
						<path style="fill:url(#SVGID_00000174598617242026209900000006054240423699989888_);" d="M255.709,304.748
							c-2.437-1.675-6.704,3.499-6.704,3.499c1.685-3.667,7.01-12.976,3.636-15.819c-2.738-2.308-6.415,1.106-7.844,3.918
							c1.261-3.286,6.099-13.408,2.775-15.216c-2.904-1.58-5.707,3.165-6.462,6.011c-0.016-3.044,0.7-13.276-5.061-12.605
							c-5.562,0.776-3.548,10.492-2.519,14.071c-1.386-2.213-4.966-6.836-7.446-3.858c-4.02,4.827,7.883,14.794,7.883,14.794
							c0,0.001-7.428-3.391-7.913,1.346c-0.686,6.701,6.696,11.013,12.372,12.032c-8.092-1.653-8.167,5.973-2.694,9.594
							c4.601,3.044,10.611,3.314,15.537,0.853C254.723,320.448,259.412,307.294,255.709,304.748z"/>
						
							<linearGradient id="SVGID_00000157295337544646744200000000994178625466001311_" gradientUnits="userSpaceOnUse" x1="1882.6233" y1="59.9155" x2="1921.9536" y2="59.9155" gradientTransform="matrix(0.9764 0.216 -0.216 0.9764 -1601.0132 -165.3907)">
							<stop  offset="0" style="stop-color:#5277FF"/>
							<stop  offset="1" style="stop-color:#30009F"/>
						</linearGradient>
						<path style="fill:url(#SVGID_00000157295337544646744200000000994178625466001311_);" d="M251.548,313.267
							c-0.447,0.992-0.945,1.963-1.47,2.902c-0.406,0.726-0.861,1.42-1.34,2.084c-2.158-3.577-4.061-7.307-5.693-11.152
							c0.754-0.85,1.489-1.733,2.15-2.652c0.728-1.012,1.427-2.095,2.065-3.185c0.637-1.09,1.225-2.216,1.762-3.357
							c0.536-1.14,1.034-2.294,1.437-3.477c-0.444,1.165-0.981,2.295-1.555,3.406c-0.574,1.111-1.197,2.204-1.868,3.254
							c-0.671,1.05-1.402,2.086-2.157,3.047c-0.648,0.824-1.36,1.612-2.087,2.363c-1.265-2.994-2.37-6.134-3.26-9.26
							c0.704-1.038,1.399-2.08,1.995-3.196c0.336-0.563,0.614-1.168,0.926-1.743c0.277-0.601,0.576-1.192,0.838-1.79
							c0.521-1.192,1.037-2.418,1.485-3.648c0.448-1.229,0.864-2.469,1.199-3.728c-0.377,1.244-0.833,2.462-1.32,3.667
							c-0.487,1.205-1.041,2.401-1.598,3.558c-0.279,0.581-0.596,1.152-0.89,1.733c-0.329,0.554-0.623,1.137-0.974,1.675
							c-0.567,0.969-1.211,1.87-1.866,2.758c-1.629-6.245-2.668-12.405-3.185-18.833c0.348,6.467,1.227,12.678,2.695,18.99
							c-0.99-0.381-1.971-0.832-2.921-1.402c-1.093-0.656-2.169-1.401-3.191-2.257c-1.02-0.855-2.02-1.794-2.961-2.82
							c-0.942-1.026-1.844-2.131-2.674-3.331c0.798,1.239,1.674,2.387,2.593,3.459c0.919,1.071,1.901,2.06,2.909,2.966
							c1.01,0.908,2.08,1.707,3.175,2.418c1.047,0.679,2.141,1.22,3.253,1.677c0.914,3.23,1.914,6.329,3.06,9.484
							c-0.995,0.118-2.031,0.125-3.054-0.023c-1.186-0.171-2.409-0.499-3.593-0.954c-1.187-0.456-2.373-1.038-3.525-1.724
							c-1.153-0.686-2.288-1.47-3.372-2.386c1.064,0.963,2.185,1.799,3.33,2.538c1.144,0.739,2.328,1.376,3.522,1.887
							c1.191,0.51,2.43,0.894,3.645,1.118c1.086,0.2,2.198,0.233,3.279,0.135c1.542,3.919,3.361,7.729,5.439,11.393
							c-0.923,0.14-1.863,0.233-2.819,0.242c-1.197,0.011-2.418-0.048-3.643-0.212c-1.223-0.164-2.467-0.397-3.705-0.721
							c-1.239-0.324-2.483-0.724-3.719-1.234c1.231,0.564,2.475,1.019,3.718,1.397c1.242,0.378,2.494,0.665,3.73,0.881
							c1.238,0.216,2.477,0.326,3.699,0.363c1.034,0.031,2.054-0.035,3.061-0.156c2.488,4.265,5.279,8.381,8.443,12.178
							c0.476-0.412,0.715-0.618,1.191-1.029c-3.215-3.656-6.073-7.637-8.635-11.772c0.498-0.761,0.964-1.548,1.37-2.365
							c0.49-0.986,0.949-1.996,1.356-3.02c0.407-1.023,0.795-2.058,1.151-3.094c0.356-1.036,0.693-2.077,0.989-3.123
							c-0.338,1.03-0.717,2.05-1.114,3.063C252.424,311.269,251.994,312.276,251.548,313.267z"/>
					</g>
				</g>
				<g style="clip-path:url(#SVGID_00000130632236391180937530000012174334532158213014_);">
					<g>
						
							<linearGradient id="SVGID_00000178905897163285756060000005529335870318065826_" gradientUnits="userSpaceOnUse" x1="1821.7715" y1="66.7449" x2="1821.7715" y2="143.8022" gradientTransform="matrix(-0.9784 0.2068 0.2068 0.9784 2039.9156 -190.7817)">
							<stop  offset="0" style="stop-color:#26E6FF"/>
							<stop  offset="0.4856" style="stop-color:#4189FF"/>
							<stop  offset="0.8345" style="stop-color:#534CFF"/>
							<stop  offset="1" style="stop-color:#5A35FF"/>
						</linearGradient>
						<path style="fill:url(#SVGID_00000178905897163285756060000005529335870318065826_);" d="M255.341,296.331
							c3.926-2.645,10.676,5.702,10.676,5.702c-2.641-5.894-11.023-20.874-5.58-25.373c4.418-3.652,10.25,1.867,12.495,6.389
							c-1.969-5.278-9.559-21.551-4.212-24.394c4.672-2.484,9.087,5.152,10.252,9.718c0.071-4.872-0.92-21.259,8.291-20.098
							c8.891,1.325,5.52,16.846,3.819,22.559c2.251-3.521,8.051-10.866,11.975-6.062c6.361,7.787-12.84,23.559-12.84,23.559
							c0.001,0.001,11.94-5.314,12.645,2.273c0.997,10.735-10.884,17.525-19.983,19.07c12.977-2.524,12.981,9.683,4.166,15.395
							c-7.41,4.802-17.033,5.143-24.88,1.13C256.682,321.471,249.376,300.349,255.341,296.331z"/>
						
							<linearGradient id="SVGID_00000035489708236641788050000009005165295132592788_" gradientUnits="userSpaceOnUse" x1="1795.7969" y1="110.6176" x2="1858.7472" y2="110.6176" gradientTransform="matrix(-0.9784 0.2068 0.2068 0.9784 2039.9156 -190.7817)">
							<stop  offset="0" style="stop-color:#5277FF"/>
							<stop  offset="1" style="stop-color:#30009F"/>
						</linearGradient>
						<path style="fill:url(#SVGID_00000035489708236641788050000009005165295132592788_);" d="M261.872,310.026
							c0.701,1.594,1.483,3.156,2.309,4.667c0.639,1.168,1.356,2.285,2.113,3.356c3.507-5.692,6.61-11.633,9.279-17.763
							c-1.194-1.371-2.357-2.796-3.401-4.277c-1.15-1.631-2.253-3.375-3.257-5.129c-1.004-1.754-1.927-3.566-2.768-5.399
							c-0.841-1.833-1.62-3.688-2.248-5.587c0.693,1.872,1.535,3.688,2.437,5.475c0.902,1.788,1.883,3.545,2.941,5.236
							c1.058,1.691,2.213,3.36,3.406,4.908c1.024,1.328,2.152,2.601,3.305,3.813c2.069-4.772,3.886-9.782,5.358-14.771
							c-1.111-1.672-2.207-3.35-3.145-5.145c-0.529-0.905-0.965-1.878-1.456-2.803c-0.435-0.966-0.904-1.916-1.314-2.878
							c-0.816-1.915-1.623-3.885-2.322-5.86c-0.698-1.974-1.346-3.964-1.863-5.985c0.585,1.996,1.297,3.953,2.058,5.888
							c0.762,1.936,1.63,3.858,2.504,5.719c0.438,0.934,0.936,1.853,1.398,2.787c0.518,0.892,0.98,1.83,1.534,2.696
							c0.892,1.56,1.91,3.01,2.945,4.441c2.701-9.97,4.457-19.813,5.382-30.094c-0.654,10.345-2.156,20.273-4.6,30.353
							c1.589-0.595,3.167-1.302,4.696-2.2c1.76-1.033,3.492-2.209,5.141-3.564c1.645-1.352,3.259-2.841,4.782-4.468
							c1.523-1.628,2.984-3.382,4.33-5.291c-1.296,1.971-2.715,3.795-4.203,5.496c-1.488,1.701-3.073,3.269-4.7,4.703
							c-1.63,1.438-3.354,2.701-5.119,3.823c-1.686,1.072-3.445,1.921-5.231,2.634c-1.512,5.156-3.159,10.101-5.04,15.134
							c1.591,0.203,3.248,0.231,4.888,0.01c1.901-0.256,3.863-0.762,5.766-1.472c1.907-0.712,3.814-1.626,5.668-2.706
							c1.855-1.08,3.684-2.319,5.433-3.768c-1.717,1.526-3.525,2.847-5.368,4.012c-1.842,1.165-3.747,2.168-5.665,2.967
							c-1.914,0.798-3.902,1.394-5.85,1.734c-1.741,0.303-3.521,0.339-5.25,0.167c-2.527,6.25-5.496,12.32-8.877,18.152
							c1.475,0.238,2.977,0.401,4.509,0.43c1.916,0.036,3.871-0.041,5.834-0.284c1.96-0.243,3.954-0.598,5.941-1.098
							c1.988-0.5,3.985-1.122,5.971-1.919c-1.978,0.883-3.976,1.593-5.971,2.18c-1.994,0.586-4.002,1.027-5.983,1.353
							c-1.985,0.327-3.97,0.484-5.925,0.525c-1.655,0.034-3.286-0.087-4.896-0.295c-4.046,6.789-8.576,13.334-13.696,19.363
							c-0.756-0.666-1.135-0.999-1.891-1.665c5.201-5.803,9.835-12.131,13.998-18.711c-0.785-1.225-1.519-2.491-2.157-3.806
							c-0.77-1.585-1.489-3.209-2.125-4.854c-0.636-1.644-1.242-3.306-1.795-4.97c-0.553-1.664-1.078-3.334-1.535-5.013
							c0.525,1.653,1.117,3.291,1.736,4.918C260.5,306.816,261.172,308.434,261.872,310.026z"/>
					</g>
				</g>
			</g>
		</g>
		<g>
			
				<linearGradient id="SVGID_00000075144419473075665080000014015595036976329107_" gradientUnits="userSpaceOnUse" x1="370.3669" y1="202.6764" x2="370.3669" y2="257.4103">
				<stop  offset="0" style="stop-color:#EFCF64"/>
				<stop  offset="1" style="stop-color:#F9925D"/>
			</linearGradient>
			<circle style="fill:url(#SVGID_00000075144419473075665080000014015595036976329107_);" cx="370.367" cy="230.043" r="27.367"/>
			<g>
				<path style="fill:#F0F5F7;" d="M363.662,252.257l-15.509-15.509c-0.953-0.953-0.953-2.499,0-3.452l25.466-25.466
					c0.953-0.953,2.499-0.953,3.452,0l15.509,15.509c0.953,0.953,0.953,2.499,0,3.452l-25.466,25.466
					C366.161,253.21,364.616,253.21,363.662,252.257z"/>
				<g>
					<path style="fill:#606BF1;" d="M379.402,217.974c-0.244,0.244-0.563,0.368-0.886,0.368c-0.319-0.004-0.642-0.124-0.886-0.368
						l-2.114-2.114l1.776-1.776l2.114,2.114C379.893,216.686,379.893,217.482,379.402,217.974z"/>
					<path style="fill:#FBD15B;" d="M377.291,214.084l-1.776,1.776l-2.114-2.114c-0.492-0.492-0.488-1.284,0-1.772
						c0.244-0.244,0.567-0.372,0.89-0.372s0.638,0.12,0.886,0.368L377.291,214.084z"/>
					<path style="fill:#606BF1;" d="M375.884,221.492c-0.244,0.244-0.563,0.368-0.886,0.368c-0.319-0.004-0.642-0.124-0.886-0.368
						l-2.114-2.114l1.776-1.776l2.114,2.114C376.375,220.204,376.375,221,375.884,221.492z"/>
					<path style="fill:#FBD15B;" d="M373.773,217.602l-1.776,1.776l-2.114-2.114c-0.492-0.492-0.488-1.284,0-1.772
						c0.244-0.244,0.567-0.372,0.89-0.372s0.638,0.12,0.886,0.368L373.773,217.602z"/>
					<path style="fill:#606BF1;" d="M372.366,225.01c-0.244,0.244-0.563,0.368-0.886,0.368c-0.319-0.004-0.642-0.124-0.886-0.368
						l-2.114-2.114l1.776-1.776l2.114,2.114C372.858,223.722,372.858,224.518,372.366,225.01z"/>
					<path style="fill:#FBD15B;" d="M370.255,221.12l-1.776,1.776l-2.114-2.114c-0.492-0.492-0.488-1.284,0-1.772
						c0.244-0.244,0.567-0.372,0.89-0.372c0.323,0,0.638,0.12,0.886,0.368L370.255,221.12z"/>
					<path style="fill:#606BF1;" d="M368.848,228.528c-0.244,0.244-0.563,0.368-0.886,0.368c-0.319-0.004-0.642-0.124-0.886-0.368
						l-2.114-2.114l1.776-1.776l2.114,2.114C369.34,227.24,369.34,228.036,368.848,228.528z"/>
					<path style="fill:#FBD15B;" d="M366.738,224.638l-1.776,1.776l-2.114-2.114c-0.492-0.492-0.488-1.284,0-1.772
						c0.244-0.244,0.567-0.372,0.89-0.372s0.638,0.12,0.886,0.368L366.738,224.638z"/>
					<path style="fill:#606BF1;" d="M365.33,232.046c-0.244,0.244-0.563,0.368-0.886,0.368c-0.319-0.004-0.642-0.124-0.886-0.368
						l-2.114-2.114l1.776-1.776l2.114,2.114C365.822,230.758,365.822,231.554,365.33,232.046z"/>
					<path style="fill:#FBD15B;" d="M363.22,228.156l-1.776,1.776l-2.114-2.114c-0.492-0.492-0.488-1.284,0-1.772
						c0.244-0.244,0.567-0.372,0.89-0.372s0.638,0.12,0.886,0.368L363.22,228.156z"/>
					<path style="fill:#606BF1;" d="M361.812,235.564c-0.244,0.244-0.563,0.368-0.886,0.368c-0.319-0.004-0.642-0.124-0.886-0.368
						l-2.114-2.114l1.776-1.776l2.114,2.114C362.304,234.276,362.304,235.072,361.812,235.564z"/>
					<path style="fill:#FBD15B;" d="M359.702,231.674l-1.776,1.776l-2.114-2.114c-0.492-0.492-0.488-1.284,0-1.772
						c0.244-0.244,0.567-0.372,0.89-0.372s0.638,0.12,0.886,0.368L359.702,231.674z"/>
					<path style="fill:#606BF1;" d="M358.294,239.082c-0.244,0.244-0.563,0.368-0.886,0.368c-0.319-0.004-0.642-0.124-0.886-0.368
						l-2.114-2.114l1.776-1.776l2.114,2.114C358.786,237.794,358.786,238.59,358.294,239.082z"/>
					<path style="fill:#FBD15B;" d="M356.184,235.192l-1.776,1.776l-2.114-2.114c-0.492-0.492-0.488-1.284,0-1.772
						c0.244-0.244,0.567-0.372,0.89-0.372c0.323,0,0.638,0.12,0.886,0.368L356.184,235.192z"/>
				</g>
				<g>
					<path style="fill:#606BF1;" d="M388.436,227.009c-0.244,0.244-0.563,0.368-0.886,0.368c-0.319-0.004-0.642-0.124-0.886-0.368
						l-2.114-2.114l1.776-1.776l2.114,2.114C388.928,225.721,388.928,226.517,388.436,227.009z"/>
					<path style="fill:#FBD15B;" d="M386.326,223.119l-1.776,1.776l-2.114-2.114c-0.492-0.492-0.488-1.284,0-1.772
						c0.244-0.244,0.567-0.372,0.89-0.372c0.323,0,0.638,0.12,0.886,0.368L386.326,223.119z"/>
					<path style="fill:#606BF1;" d="M384.918,230.527c-0.244,0.244-0.563,0.368-0.886,0.368c-0.319-0.004-0.642-0.124-0.886-0.368
						l-2.114-2.114l1.776-1.776l2.114,2.114C385.41,229.239,385.41,230.035,384.918,230.527z"/>
					<path style="fill:#FBD15B;" d="M382.808,226.637l-1.776,1.776l-2.114-2.114c-0.492-0.492-0.488-1.284,0-1.772
						c0.244-0.244,0.567-0.372,0.89-0.372c0.323,0,0.638,0.12,0.886,0.368L382.808,226.637z"/>
					<path style="fill:#606BF1;" d="M381.4,234.045c-0.244,0.244-0.563,0.368-0.886,0.368c-0.319-0.004-0.642-0.124-0.886-0.368
						l-2.114-2.114l1.776-1.776l2.114,2.114C381.892,232.757,381.892,233.553,381.4,234.045z"/>
					<path style="fill:#FBD15B;" d="M379.29,230.155l-1.776,1.776l-2.114-2.114c-0.492-0.492-0.488-1.284,0-1.772
						c0.244-0.244,0.567-0.372,0.89-0.372s0.638,0.12,0.886,0.368L379.29,230.155z"/>
					<path style="fill:#606BF1;" d="M377.882,237.563c-0.244,0.244-0.563,0.368-0.886,0.368c-0.319-0.004-0.642-0.124-0.886-0.368
						l-2.114-2.114l1.776-1.776l2.114,2.114C378.374,236.275,378.374,237.071,377.882,237.563z"/>
					<path style="fill:#FBD15B;" d="M375.772,233.673l-1.776,1.776l-2.114-2.114c-0.492-0.492-0.488-1.284,0-1.772
						c0.244-0.244,0.567-0.372,0.89-0.372s0.638,0.12,0.886,0.368L375.772,233.673z"/>
					<path style="fill:#606BF1;" d="M374.365,241.081c-0.244,0.244-0.563,0.368-0.886,0.368c-0.319-0.004-0.642-0.124-0.886-0.368
						l-2.114-2.114l1.776-1.776l2.114,2.114C374.856,239.793,374.856,240.589,374.365,241.081z"/>
					<path style="fill:#FBD15B;" d="M372.254,237.191l-1.776,1.776l-2.114-2.114c-0.492-0.492-0.488-1.284,0-1.772
						c0.244-0.244,0.567-0.372,0.89-0.372c0.323,0,0.638,0.12,0.886,0.368L372.254,237.191z"/>
					<path style="fill:#606BF1;" d="M370.847,244.598c-0.244,0.244-0.563,0.368-0.886,0.368c-0.319-0.004-0.642-0.124-0.886-0.368
						l-2.114-2.114l1.776-1.776l2.114,2.114C371.339,243.311,371.339,244.107,370.847,244.598z"/>
					<path style="fill:#FBD15B;" d="M368.736,240.708l-1.776,1.776l-2.114-2.114c-0.492-0.492-0.488-1.284,0-1.772
						c0.244-0.244,0.567-0.372,0.89-0.372s0.638,0.12,0.886,0.368L368.736,240.708z"/>
					<path style="fill:#606BF1;" d="M367.329,248.117c-0.244,0.244-0.563,0.368-0.886,0.368c-0.319-0.004-0.642-0.124-0.886-0.368
						l-2.114-2.114l1.776-1.776l2.114,2.114C367.821,246.829,367.821,247.625,367.329,248.117z"/>
					<path style="fill:#FBD15B;" d="M365.219,244.226l-1.776,1.776l-2.114-2.114c-0.492-0.492-0.488-1.284,0-1.772
						c0.244-0.244,0.567-0.372,0.89-0.372s0.638,0.12,0.886,0.368L365.219,244.226z"/>
				</g>
				
					<line style="fill:none;stroke:#F0F5F7;stroke-width:0.8769;stroke-linecap:round;stroke-miterlimit:10;" x1="383.508" y1="216.902" x2="357.225" y2="243.185"/>
			</g>
		</g>
		<g>
			
				<linearGradient id="SVGID_00000137818599358268246970000012197907724011440305_" gradientUnits="userSpaceOnUse" x1="430.4316" y1="176.0618" x2="430.4316" y2="230.2681">
				<stop  offset="0" style="stop-color:#DF697B"/>
				<stop  offset="1" style="stop-color:#BE2773"/>
			</linearGradient>
			<circle style="fill:url(#SVGID_00000137818599358268246970000012197907724011440305_);" cx="430.432" cy="203.165" r="27.103"/>
			<g>
				<path style="fill:#F0F5F7;" d="M411.276,199.617v15.982c0,1.34,1.086,2.426,2.426,2.426h33.459c1.34,0,2.426-1.086,2.426-2.426
					v-15.982H411.276z"/>
				<path style="fill:#DCE8EF;" d="M449.587,195.758c0-1.34-1.086-2.426-2.426-2.426h-33.459c-1.34,0-2.426,1.086-2.426,2.426v3.858
					h38.311V195.758z"/>
				<path style="fill:#FD3476;" d="M434.796,206.477h-2.021v-2.021c0-0.551-0.447-0.998-0.998-0.998h-2.692
					c-0.551,0-0.998,0.447-0.998,0.998v2.021h-2.021c-0.551,0-0.998,0.447-0.998,0.998v2.692c0,0.551,0.447,0.998,0.998,0.998h2.021
					v2.021c0,0.551,0.447,0.998,0.998,0.998h2.692c0.551,0,0.998-0.447,0.998-0.998v-2.021h2.021c0.551,0,0.998-0.447,0.998-0.998
					v-2.692C435.794,206.924,435.347,206.477,434.796,206.477z"/>
				<path style="fill:none;stroke:#DCE8EF;stroke-width:1.1572;stroke-miterlimit:10;" d="M423.219,193.332v-3.483
					c0-0.853,0.691-1.544,1.544-1.544H436.1c0.852,0,1.544,0.691,1.544,1.544v3.483"/>
			</g>
		</g>
		<g>
			<rect x="370.052" y="280.393" style="fill:#F0F5F7;" width="17.535" height="14.105"/>
			<path style="fill:#F0F5F7;" d="M370.052,280.393H352.91c-1.692,0-3.064,1.372-3.064,3.064v7.976c0,1.692,1.372,3.064,3.064,3.064
				h17.143V280.393z"/>
			
				<linearGradient id="SVGID_00000114060581166450228370000011869325584627919022_" gradientUnits="userSpaceOnUse" x1="360.3217" y1="281.1386" x2="360.3217" y2="293.7525">
				<stop  offset="0" style="stop-color:#EFCF64"/>
				<stop  offset="1" style="stop-color:#F9925D"/>
			</linearGradient>
			<path style="fill:url(#SVGID_00000114060581166450228370000011869325584627919022_);" d="M350.591,283.457
				c0-1.279,1.04-2.319,2.319-2.319h17.143v12.614H352.91c-1.279,0-2.319-1.04-2.319-2.319V283.457z"/>
			<path style="fill:#F0F5F7;" d="M389.817,295.728v-16.565c0-0.616-0.499-1.115-1.115-1.115l0,0c-0.616,0-1.115,0.499-1.115,1.115
				v16.565c0,0.616,0.499,1.115,1.115,1.115l0,0C389.318,296.843,389.817,296.344,389.817,295.728z"/>
			
				<rect x="346.429" y="286.859" transform="matrix(-1.836970e-16 1 -1 -1.836970e-16 636.7052 -61.8141)" style="fill:#DCE8EF;" width="5.661" height="1.172"/>
			<polygon style="fill:#DCE8EF;" points="348.673,288.827 348.673,286.065 345.258,286.922 345.258,287.97 			"/>
			
				<line style="fill:none;stroke:#F0F5F7;stroke-width:0.544;stroke-miterlimit:10;" x1="345.258" y1="287.445" x2="331.667" y2="287.445"/>
			
				<rect x="394.457" y="281.64" transform="matrix(-1.836970e-16 1 -1 -1.836970e-16 683.0684 -108.1774)" style="fill:#DCE8EF;" width="2.331" height="11.611"/>
			<path style="fill:#DCE8EF;" d="M401.429,296.301V278.59c0-0.299,0.242-0.542,0.542-0.542l0,0c0.299,0,0.542,0.242,0.542,0.542
				v17.711c0,0.299-0.243,0.542-0.542,0.542l0,0C401.671,296.843,401.429,296.6,401.429,296.301z"/>
			<g>
				
					<line style="fill:none;stroke:#F0F5F7;stroke-width:0.1443;stroke-miterlimit:10;" x1="384.082" y1="280.393" x2="384.082" y2="284.615"/>
				
					<line style="fill:none;stroke:#F0F5F7;stroke-width:0.1443;stroke-miterlimit:10;" x1="381.009" y1="280.393" x2="381.009" y2="284.615"/>
				
					<line style="fill:none;stroke:#F0F5F7;stroke-width:0.1443;stroke-miterlimit:10;" x1="377.936" y1="280.393" x2="377.936" y2="284.615"/>
				
					<line style="fill:none;stroke:#F0F5F7;stroke-width:0.1443;stroke-miterlimit:10;" x1="374.863" y1="280.393" x2="374.863" y2="284.615"/>
				
					<line style="fill:none;stroke:#F0F5F7;stroke-width:0.1443;stroke-miterlimit:10;" x1="371.79" y1="280.393" x2="371.79" y2="284.615"/>
				
					<line style="fill:none;stroke:#F0F5F7;stroke-width:0.1443;stroke-miterlimit:10;" x1="368.717" y1="280.393" x2="368.717" y2="284.615"/>
				
					<line style="fill:none;stroke:#F0F5F7;stroke-width:0.1443;stroke-miterlimit:10;" x1="365.643" y1="280.393" x2="365.643" y2="284.615"/>
				
					<line style="fill:none;stroke:#F0F5F7;stroke-width:0.1443;stroke-miterlimit:10;" x1="362.57" y1="280.393" x2="362.57" y2="284.615"/>
				
					<line style="fill:none;stroke:#F0F5F7;stroke-width:0.1443;stroke-miterlimit:10;" x1="359.497" y1="280.393" x2="359.497" y2="284.615"/>
				
					<line style="fill:none;stroke:#F0F5F7;stroke-width:0.1443;stroke-miterlimit:10;" x1="356.424" y1="280.393" x2="356.424" y2="284.615"/>
				
					<line style="fill:none;stroke:#F0F5F7;stroke-width:0.1443;stroke-miterlimit:10;" x1="353.351" y1="280.393" x2="353.351" y2="284.615"/>
			</g>
			<path style="fill:#DCE8EF;" d="M372.462,288.611h15.125v-2.331h-15.125c-0.894,0-1.619-0.725-1.619-1.619v-4.268h-0.791v14.105
				h0.791v-4.268C370.844,289.336,371.568,288.611,372.462,288.611z"/>
		</g>
		<g>
			<rect x="362.202" y="261.599" style="fill:#F0F5F7;" width="17.535" height="14.105"/>
			<path style="fill:#F0F5F7;" d="M362.202,261.599H345.06c-1.692,0-3.064,1.372-3.064,3.064v7.976c0,1.692,1.372,3.064,3.064,3.064
				h17.143V261.599z"/>
			
				<linearGradient id="SVGID_00000164471524965143527770000017961390860838571167_" gradientUnits="userSpaceOnUse" x1="352.4714" y1="262.3443" x2="352.4714" y2="274.9583">
				<stop  offset="0" style="stop-color:#DF697B"/>
				<stop  offset="1" style="stop-color:#BE2773"/>
			</linearGradient>
			<path style="fill:url(#SVGID_00000164471524965143527770000017961390860838571167_);" d="M342.741,264.663
				c0-1.279,1.04-2.319,2.319-2.319h17.143v12.614H345.06c-1.279,0-2.319-1.04-2.319-2.319V264.663z"/>
			<path style="fill:#F0F5F7;" d="M381.967,276.934v-16.565c0-0.616-0.499-1.115-1.115-1.115l0,0c-0.616,0-1.115,0.499-1.115,1.115
				v16.565c0,0.616,0.499,1.115,1.115,1.115l0,0C381.468,278.048,381.967,277.549,381.967,276.934z"/>
			
				<rect x="338.579" y="268.065" transform="matrix(-1.836970e-16 1 -1 -1.836970e-16 610.0606 -72.7581)" style="fill:#DCE8EF;" width="5.661" height="1.172"/>
			<polygon style="fill:#DCE8EF;" points="340.823,270.032 340.823,267.27 337.407,268.127 337.407,269.175 			"/>
			
				<line style="fill:none;stroke:#F0F5F7;stroke-width:0.544;stroke-miterlimit:10;" x1="337.407" y1="268.651" x2="323.816" y2="268.651"/>
			
				<rect x="386.607" y="262.846" transform="matrix(-1.836970e-16 1 -1 -1.836970e-16 656.4238 -119.1214)" style="fill:#DCE8EF;" width="2.331" height="11.611"/>
			<path style="fill:#DCE8EF;" d="M393.578,277.507v-17.711c0-0.299,0.243-0.542,0.542-0.542l0,0c0.299,0,0.542,0.243,0.542,0.542
				v17.711c0,0.299-0.242,0.542-0.542,0.542l0,0C393.821,278.048,393.578,277.806,393.578,277.507z"/>
			<g>
				
					<line style="fill:none;stroke:#F0F5F7;stroke-width:0.1443;stroke-miterlimit:10;" x1="376.232" y1="261.599" x2="376.232" y2="265.821"/>
				
					<line style="fill:none;stroke:#F0F5F7;stroke-width:0.1443;stroke-miterlimit:10;" x1="373.159" y1="261.599" x2="373.159" y2="265.821"/>
				
					<line style="fill:none;stroke:#F0F5F7;stroke-width:0.1443;stroke-miterlimit:10;" x1="370.086" y1="261.599" x2="370.086" y2="265.821"/>
				
					<line style="fill:none;stroke:#F0F5F7;stroke-width:0.1443;stroke-miterlimit:10;" x1="367.013" y1="261.599" x2="367.013" y2="265.821"/>
				
					<line style="fill:none;stroke:#F0F5F7;stroke-width:0.1443;stroke-miterlimit:10;" x1="363.939" y1="261.599" x2="363.939" y2="265.821"/>
				
					<line style="fill:none;stroke:#F0F5F7;stroke-width:0.1443;stroke-miterlimit:10;" x1="360.866" y1="261.599" x2="360.866" y2="265.821"/>
				
					<line style="fill:none;stroke:#F0F5F7;stroke-width:0.1443;stroke-miterlimit:10;" x1="357.793" y1="261.599" x2="357.793" y2="265.821"/>
				
					<line style="fill:none;stroke:#F0F5F7;stroke-width:0.1443;stroke-miterlimit:10;" x1="354.72" y1="261.599" x2="354.72" y2="265.821"/>
				
					<line style="fill:none;stroke:#F0F5F7;stroke-width:0.1443;stroke-miterlimit:10;" x1="351.647" y1="261.599" x2="351.647" y2="265.821"/>
				
					<line style="fill:none;stroke:#F0F5F7;stroke-width:0.1443;stroke-miterlimit:10;" x1="348.574" y1="261.599" x2="348.574" y2="265.821"/>
				
					<line style="fill:none;stroke:#F0F5F7;stroke-width:0.1443;stroke-miterlimit:10;" x1="345.5" y1="261.599" x2="345.5" y2="265.821"/>
			</g>
			<path style="fill:#DCE8EF;" d="M364.612,269.817h15.125v-2.331h-15.125c-0.894,0-1.619-0.725-1.619-1.619v-4.268h-0.791v14.105
				h0.791v-4.268C362.993,270.542,363.718,269.817,364.612,269.817z"/>
		</g>
		<g>
			
				<linearGradient id="SVGID_00000181073543350193686940000003956521793482751918_" gradientUnits="userSpaceOnUse" x1="306.1232" y1="195.6588" x2="306.1232" y2="252.9111">
				<stop  offset="0.2387" style="stop-color:#606BF1"/>
				<stop  offset="0.4336" style="stop-color:#5D66F0"/>
				<stop  offset="0.6671" style="stop-color:#5557EF"/>
				<stop  offset="0.9195" style="stop-color:#463FEC"/>
				<stop  offset="1" style="stop-color:#4136EB"/>
			</linearGradient>
			<circle style="fill:url(#SVGID_00000181073543350193686940000003956521793482751918_);" cx="306.123" cy="224.285" r="28.626"/>
			<g>
				
					<linearGradient id="SVGID_00000134962549757653983680000017005922067741952424_" gradientUnits="userSpaceOnUse" x1="306.1232" y1="208.3681" x2="306.1232" y2="241.8379">
					<stop  offset="0" style="stop-color:#DF697B"/>
					<stop  offset="1" style="stop-color:#BE2773"/>
				</linearGradient>
				<path style="fill:url(#SVGID_00000134962549757653983680000017005922067741952424_);" d="M306.123,211.509
					c-4.188-4.188-10.977-4.188-15.165,0c-4.188,4.188-4.188,10.977,0,15.165l15.165,15.165l15.164-15.165
					c4.188-4.188,4.188-10.977,0-15.165C317.1,207.321,310.311,207.321,306.123,211.509z"/>
				
					<polyline style="fill:none;stroke:#F9FBFC;stroke-width:2;stroke-linecap:round;stroke-linejoin:round;stroke-miterlimit:10;" points="
					284.016,221.162 296.327,221.162 298.009,224.659 302.128,215.243 305.443,226.371 309.003,215.785 313.942,229.567 
					315.861,221.162 332.316,221.162 				"/>
			</g>
		</g>
		<g>
			
				<linearGradient id="SVGID_00000182510381301131139820000012443723514089101456_" gradientUnits="userSpaceOnUse" x1="261.6801" y1="99.2699" x2="261.6801" y2="180.3571">
				<stop  offset="0" style="stop-color:#BEE1F4"/>
				<stop  offset="0.2533" style="stop-color:#B9DFF3"/>
				<stop  offset="0.5566" style="stop-color:#AAD9EF"/>
				<stop  offset="0.8845" style="stop-color:#92D0E9"/>
				<stop  offset="1" style="stop-color:#88CCE6"/>
			</linearGradient>
			<circle style="fill:url(#SVGID_00000182510381301131139820000012443723514089101456_);" cx="261.68" cy="139.814" r="40.544"/>
			<g>
				
					<linearGradient id="SVGID_00000155836197145146108240000012855908651526278292_" gradientUnits="userSpaceOnUse" x1="240.9968" y1="144.569" x2="266.6457" y2="144.569">
					<stop  offset="0" style="stop-color:#DF697B"/>
					<stop  offset="1" style="stop-color:#BE2773"/>
				</linearGradient>
				<path style="fill:url(#SVGID_00000155836197145146108240000012855908651526278292_);" d="M262.468,126.386h-17.293l-2.957,2.957
					c-0.782,0.782-1.221,1.842-1.221,2.947v28.065c0,1.323,1.073,2.396,2.396,2.396h20.857c1.323,0,2.396-1.073,2.396-2.396v-28.065
					c0-1.105-0.439-2.166-1.221-2.947L262.468,126.386z"/>
				
					<linearGradient id="SVGID_00000046321542922225613070000001555771455630112943_" gradientUnits="userSpaceOnUse" x1="240.9335" y1="125.1482" x2="258.2261" y2="125.1482">
					<stop  offset="0" style="stop-color:#DF697B"/>
					<stop  offset="1" style="stop-color:#BE2773"/>
				</linearGradient>
				
					<rect x="245.175" y="123.91" style="fill:url(#SVGID_00000046321542922225613070000001555771455630112943_);" width="17.293" height="2.476"/>
				<path style="fill:#F0F5F7;" d="M263.181,123.91h-18.721c-0.662,0-1.198-0.537-1.198-1.198v-4.643
					c0-0.662,0.536-1.198,1.198-1.198h18.721c0.662,0,1.198,0.536,1.198,1.198v4.643C264.38,123.373,263.843,123.91,263.181,123.91z
					"/>
				<g>
					
						<line style="fill:none;stroke:#F0F5F7;stroke-width:0.8656;stroke-linecap:round;stroke-miterlimit:10;" x1="263.161" y1="122.82" x2="263.161" y2="117.96"/>
					
						<line style="fill:none;stroke:#F0F5F7;stroke-width:0.8656;stroke-linecap:round;stroke-miterlimit:10;" x1="261.293" y1="122.82" x2="261.293" y2="117.96"/>
					
						<line style="fill:none;stroke:#F0F5F7;stroke-width:0.8656;stroke-linecap:round;stroke-miterlimit:10;" x1="259.425" y1="122.82" x2="259.425" y2="117.96"/>
					
						<line style="fill:none;stroke:#F0F5F7;stroke-width:0.8656;stroke-linecap:round;stroke-miterlimit:10;" x1="257.557" y1="122.82" x2="257.557" y2="117.96"/>
					
						<line style="fill:none;stroke:#F0F5F7;stroke-width:0.8656;stroke-linecap:round;stroke-miterlimit:10;" x1="255.689" y1="122.82" x2="255.689" y2="117.96"/>
					
						<line style="fill:none;stroke:#F0F5F7;stroke-width:0.8656;stroke-linecap:round;stroke-miterlimit:10;" x1="253.821" y1="122.82" x2="253.821" y2="117.96"/>
					
						<line style="fill:none;stroke:#F0F5F7;stroke-width:0.8656;stroke-linecap:round;stroke-miterlimit:10;" x1="251.953" y1="122.82" x2="251.953" y2="117.96"/>
					
						<line style="fill:none;stroke:#F0F5F7;stroke-width:0.8656;stroke-linecap:round;stroke-miterlimit:10;" x1="250.085" y1="122.82" x2="250.085" y2="117.96"/>
					
						<line style="fill:none;stroke:#F0F5F7;stroke-width:0.8656;stroke-linecap:round;stroke-miterlimit:10;" x1="248.217" y1="122.82" x2="248.217" y2="117.96"/>
					
						<line style="fill:none;stroke:#F0F5F7;stroke-width:0.8656;stroke-linecap:round;stroke-miterlimit:10;" x1="246.35" y1="122.82" x2="246.35" y2="117.96"/>
					
						<line style="fill:none;stroke:#F0F5F7;stroke-width:0.8656;stroke-linecap:round;stroke-miterlimit:10;" x1="244.482" y1="122.82" x2="244.482" y2="117.96"/>
				</g>
				<path style="fill:#F0F5F7;" d="M261.357,140.389h-3.355v-3.355c0-0.49-0.397-0.888-0.888-0.888h-6.586
					c-0.49,0-0.887,0.397-0.887,0.888v3.355h-3.355c-0.49,0-0.887,0.397-0.887,0.887v6.586c0,0.49,0.397,0.888,0.887,0.888h3.355
					v3.355c0,0.49,0.397,0.888,0.887,0.888h6.586c0.49,0,0.888-0.397,0.888-0.888v-3.355h3.355c0.49,0,0.888-0.397,0.888-0.888
					v-6.586C262.244,140.786,261.847,140.389,261.357,140.389z"/>
				<g>
					<path style="fill:#FBD15B;" d="M268.633,152.924v5.799c0,1.108-0.45,2.121-1.186,2.848c-0.727,0.736-1.731,1.186-2.848,1.186
						c-2.224,0-4.025-1.809-4.025-4.033v-5.799H268.633z"/>
					<path style="fill:#606BF1;" d="M268.633,147.116v5.808h-8.058v-5.808c0-2.225,1.8-4.034,4.025-4.034
						C266.824,143.083,268.633,144.892,268.633,147.116z"/>
					<path style="fill:#FBD15B;" d="M282.363,156.698c0,3.341-2.718,6.059-6.068,6.059c-3.341,0-6.059-2.718-6.059-6.059H282.363z"
						/>
					<path style="fill:#FD3476;" d="M282.363,156.698h-12.126c0-3.35,2.718-6.068,6.059-6.068
						C279.646,150.63,282.363,153.348,282.363,156.698z"/>
				</g>
			</g>
		</g>
		<g>
			
				<linearGradient id="SVGID_00000056403542964172369090000000293865348068118456_" gradientUnits="userSpaceOnUse" x1="362.4042" y1="113.9695" x2="362.4042" y2="192.7151">
				<stop  offset="0.2387" style="stop-color:#606BF1"/>
				<stop  offset="0.4336" style="stop-color:#5D66F0"/>
				<stop  offset="0.6671" style="stop-color:#5557EF"/>
				<stop  offset="0.9195" style="stop-color:#463FEC"/>
				<stop  offset="1" style="stop-color:#4136EB"/>
			</linearGradient>
			<circle style="fill:url(#SVGID_00000056403542964172369090000000293865348068118456_);" cx="362.404" cy="153.342" r="39.373"/>
			<g>
				<path style="fill:#56548C;" d="M382.327,182.551h-39.845c-1.199,0-2.17-0.972-2.17-2.17v-51.363c0-1.199,0.972-2.17,2.17-2.17
					h39.845c1.199,0,2.17,0.972,2.17,2.17v51.363C384.497,181.579,383.525,182.551,382.327,182.551z"/>
				<rect x="343.03" y="130.275" style="fill:#F0F5F7;" width="38.748" height="48.848"/>
				<path style="fill:#FBD15B;" d="M372.287,129.402v1.745c0,0.419-0.335,0.753-0.753,0.753H353.27
					c-0.412,0-0.753-0.335-0.753-0.753v-1.745c0-0.419,0.341-0.753,0.753-0.753h18.264
					C371.953,128.648,372.287,128.983,372.287,129.402z"/>
				<g>
					<path style="fill:#FBD15B;" d="M368.578,128.648h-1.307l-0.509-2.73c-0.058-0.29-0.303-0.496-0.599-0.496h-7.522
						c-0.29,0-0.541,0.206-0.592,0.489l-0.509,2.737h-1.314l0.554-2.969c0.168-0.895,0.953-1.546,1.861-1.546h7.522
						c0.914,0,1.694,0.65,1.861,1.546L368.578,128.648z"/>
				</g>
				<g>
					
						<line style="fill:none;stroke:#C3D3DD;stroke-width:0.8406;stroke-miterlimit:10;" x1="346.29" y1="138.745" x2="378.519" y2="138.745"/>
					
						<line style="fill:none;stroke:#C3D3DD;stroke-width:0.8406;stroke-miterlimit:10;" x1="346.29" y1="142.734" x2="357.463" y2="142.734"/>
					
						<line style="fill:none;stroke:#C3D3DD;stroke-width:0.8406;stroke-miterlimit:10;" x1="346.29" y1="146.722" x2="357.463" y2="146.722"/>
					
						<line style="fill:none;stroke:#C3D3DD;stroke-width:0.8406;stroke-miterlimit:10;" x1="346.29" y1="150.71" x2="357.463" y2="150.71"/>
					
						<line style="fill:none;stroke:#C3D3DD;stroke-width:0.8406;stroke-miterlimit:10;" x1="346.29" y1="154.699" x2="357.463" y2="154.699"/>
					
						<line style="fill:none;stroke:#C3D3DD;stroke-width:0.8406;stroke-miterlimit:10;" x1="346.29" y1="158.687" x2="357.463" y2="158.687"/>
					
						<line style="fill:none;stroke:#C3D3DD;stroke-width:0.8406;stroke-miterlimit:10;" x1="346.29" y1="162.676" x2="378.519" y2="162.676"/>
					
						<line style="fill:none;stroke:#C3D3DD;stroke-width:0.8406;stroke-miterlimit:10;" x1="346.29" y1="166.664" x2="378.519" y2="166.664"/>
					
						<line style="fill:none;stroke:#C3D3DD;stroke-width:0.8406;stroke-miterlimit:10;" x1="346.29" y1="170.652" x2="378.519" y2="170.652"/>
				</g>
				<g>
					
						<rect x="361.131" y="141.3" transform="matrix(-1.836970e-16 1 -1 -1.836970e-16 519.8187 -218.3978)" style="fill:#A5B7C6;" width="15.954" height="18.821"/>
					<g>
						
							<rect x="368.118" y="138.014" transform="matrix(-1.836970e-16 1 -1 -1.836970e-16 514.225 -223.9916)" style="fill:#F0F5F7;" width="1.981" height="14.205"/>
						
							<rect x="368.118" y="141.743" transform="matrix(-1.836970e-16 1 -1 -1.836970e-16 517.9542 -220.2624)" style="fill:#F0F5F7;" width="1.981" height="14.205"/>
						
							<rect x="368.118" y="145.473" transform="matrix(-1.836970e-16 1 -1 -1.836970e-16 521.6833 -216.5333)" style="fill:#F0F5F7;" width="1.981" height="14.205"/>
						
							<rect x="368.118" y="149.202" transform="matrix(-1.836970e-16 1 -1 -1.836970e-16 525.4124 -212.8041)" style="fill:#F0F5F7;" width="1.981" height="14.205"/>
					</g>
					<g>
						
							<rect x="362.93" y="143.202" transform="matrix(-1.836970e-16 1 -1 -1.836970e-16 509.0376 -218.8042)" style="fill:#EC827D;" width="1.981" height="3.83"/>
						
							<rect x="363.926" y="145.935" transform="matrix(-1.836970e-16 1 -1 -1.836970e-16 513.7624 -216.0707)" style="fill:#EC827D;" width="1.981" height="5.821"/>
						
							<rect x="366.27" y="147.32" transform="matrix(-1.836970e-16 1 -1 -1.836970e-16 519.8359 -214.6859)" style="fill:#EC827D;" width="1.981" height="10.51"/>
						
							<rect x="365.196" y="152.124" transform="matrix(-1.836970e-16 1 -1 -1.836970e-16 522.4905 -209.8822)" style="fill:#EC827D;" width="1.981" height="8.361"/>
					</g>
				</g>
			</g>
		</g>
		<g>
			<path style="fill:#FFC8AF;" d="M290.754,182.104c0,0.543-0.164,1.069-0.477,1.53l-11.086,16.645
				c-0.822,1.234-2.204,1.974-3.684,1.974h-10.313l-4.638,3.832l-10.559-6.168l7.336-8.833c0.625-0.757,1.546-1.184,2.533-1.184
				h15.971l10.263-9.786c1.02-0.97,2.599-1.003,3.684-0.099C290.409,180.558,290.754,181.331,290.754,182.104z"/>
			<path style="fill:#F0F5F7;" d="M218.762,273.143c3.849,5.707,12.435,5.066,15.379-1.168l30.067-63.752l-3.651-2.138
				l-10.559-6.168l-3.322-1.941l-17.007,30.544l-12.599-36.728l-19.178-13.389l-29.853,74.673l-29.869-74.657l-19.162,13.372
				l-12.616,36.728L89.4,197.976l-3.322,1.941l-10.56,6.168l-3.668,2.138l30.067,63.752c2.944,6.234,11.546,6.875,15.379,1.168
				l9.375-13.915l-4.616,54.543h91.959l-4.627-54.543L218.762,273.143z"/>
			<polygon style="fill:#DCE8EF;" points="209.387,259.228 204.55,209.345 216.61,269.949 			"/>
			<polygon style="fill:#DCE8EF;" points="126.671,259.228 131.508,209.345 119.448,269.949 			"/>
			<polygon style="fill:#F0F5F7;" points="197.89,178.404 168.037,253.077 138.168,178.42 138.168,178.404 147.872,171.643 
				168.037,224.458 188.186,171.643 			"/>
			<path style="fill:#FFC8AF;" d="M78.726,191.085l7.352,8.833l-10.559,6.168l-4.655-3.832H60.551c-1.48,0-2.862-0.74-3.668-1.974
				L45.78,183.634c-0.313-0.461-0.461-0.987-0.461-1.513c0-0.79,0.329-1.563,0.971-2.105c1.069-0.905,2.664-0.872,3.684,0.099
				l10.247,9.786h15.987C77.179,189.901,78.101,190.328,78.726,191.085z"/>
			<polygon style="fill:#BEE1F4;" points="188.186,171.643 168.037,238.913 147.872,171.643 153.925,167.416 168.037,174.933 
				182.149,167.416 			"/>
			<path style="fill:#99C8DD;" d="M179.204,184.137l-11.167-9.204l11.016,12.825l8.224-15.467L179.204,184.137z M148.797,172.291
				l8.224,15.467l11.016-12.825l-11.167,9.204L148.797,172.291z"/>
			
				<linearGradient id="SVGID_00000012467582412589958180000006521862524770079638_" gradientUnits="userSpaceOnUse" x1="163.4182" y1="206.6385" x2="172.6561" y2="206.6385">
				<stop  offset="0" style="stop-color:#DF697B"/>
				<stop  offset="1" style="stop-color:#BE2773"/>
			</linearGradient>
			<polygon style="fill:url(#SVGID_00000012467582412589958180000006521862524770079638_);" points="169.999,181.354 
				166.075,181.354 163.418,219.826 168.037,231.923 172.656,219.826 			"/>
			<polygon style="fill:#DCE8EF;" points="197.89,178.404 192.717,201.062 184.334,200.736 189.616,207.236 168.037,242.384 
				168.037,231.923 188.186,171.643 			"/>
			<polygon style="fill:#DCE8EF;" points="138.184,178.404 143.357,201.062 151.74,200.736 146.458,207.236 168.037,242.384 
				168.037,231.923 147.888,171.643 			"/>
			
				<linearGradient id="SVGID_00000107556883945946708030000004854017205752354996_" gradientUnits="userSpaceOnUse" x1="163.1309" y1="178.1435" x2="172.6561" y2="178.1435">
				<stop  offset="0" style="stop-color:#DF697B"/>
				<stop  offset="1" style="stop-color:#BE2773"/>
			</linearGradient>
			<polygon style="fill:url(#SVGID_00000107556883945946708030000004854017205752354996_);" points="168.037,174.933 
				172.656,178.74 169.999,181.354 166.075,181.354 163.131,178.977 			"/>
			<g>
				<g>
					<circle style="fill:#282860;" cx="200.183" cy="224.457" r="7.466"/>
					<circle style="fill:#DCE8EF;" cx="200.183" cy="224.457" r="4.367"/>
				</g>
				<g>
					<path style="fill:none;stroke:#A5B7C6;stroke-width:1.094;stroke-linecap:round;stroke-miterlimit:10;" d="M161.299,218.348
						l2.239,12.531c0.337,1.887-1.113,3.619-3.03,3.619h-3.433"/>
					<path style="fill:none;stroke:#A5B7C6;stroke-width:1.094;stroke-linecap:round;stroke-miterlimit:10;" d="M138.668,234.498
						h-3.433c-1.916,0-3.367-1.733-3.03-3.619l2.239-12.531"/>
					<path style="fill:#282860;" d="M138.516,233.059h0.592c0.134,0,0.243,0.109,0.243,0.243v2.393c0,0.134-0.109,0.243-0.243,0.243
						h-0.592c-0.134,0-0.243-0.109-0.243-0.243v-2.393C138.273,233.167,138.382,233.059,138.516,233.059z"/>
					<path style="fill:#282860;" d="M157.229,233.059h-0.592c-0.134,0-0.243,0.109-0.243,0.243v2.393
						c0,0.134,0.109,0.243,0.243,0.243h0.592c0.134,0,0.243-0.109,0.243-0.243v-2.393
						C157.472,233.167,157.363,233.059,157.229,233.059z"/>
					<path style="fill:none;stroke:#03254E;stroke-width:3.2821;stroke-linecap:round;stroke-miterlimit:10;" d="M134.445,218.348
						l3.07-17.181c0.521-2.918,3.06-5.043,6.024-5.043h8.666c2.964,0,5.503,2.125,6.024,5.043l3.07,17.181"/>
				</g>
				<path style="fill:none;stroke:#282860;stroke-width:3.2821;stroke-linecap:round;stroke-miterlimit:10;" d="M147.872,196.124
					c0,0,0-5.393,0-16.763c0-11.37,5.288-17.482,21.78-17.482c16.493,0,30.53,9.726,30.53,55.113"/>
			</g>
			<path style="fill:#F4B298;" d="M182.149,157.038v10.378l-14.112,7.517l-14.112-7.517v-10.378
				c3.635,5.049,8.602,8.174,14.112,8.174C173.531,165.212,178.514,162.104,182.149,157.038z"/>
			<g>
				<path style="fill:#FFC8AF;" d="M169.255,165.939h-2.435c-17.01,0-30.928-21.091-30.928-38.102v-2.435
					c0-17.01,13.918-30.928,30.928-30.928h2.435c17.01,0,30.928,13.918,30.928,30.928v2.435
					C200.183,144.848,186.265,165.939,169.255,165.939z"/>
				<path style="fill:#F4B298;" d="M168.035,143.985c-2.129,0-4.05-1.672-2.576-1.672c1.474,0,2.576,0,2.576,0s1.102,0,2.576,0
					C172.086,142.313,170.165,143.985,168.035,143.985z"/>
				<path style="fill:#F4B298;" d="M168.035,157.038c-2.129,0-4.05-1.673-2.576-1.673c1.474,0,2.576,0,2.576,0s1.102,0,2.576,0
					C172.086,155.365,170.165,157.038,168.035,157.038z"/>
				<g>
					<g>
						<path style="fill:#282860;" d="M183.783,133.615c0,1.785-1.447,3.232-3.232,3.232c-1.785,0-3.232-1.447-3.232-3.232
							c0-1.785,1.447-3.232,3.232-3.232C182.337,130.383,183.783,131.83,183.783,133.615z"/>
						<path style="fill:#282860;" d="M176.246,125.735c0.245-1.03,10.313-0.331,11.083,0.805
							C188.099,127.676,175.674,128.138,176.246,125.735z"/>
					</g>
					<g>
						<path style="fill:#282860;" d="M152.291,133.615c0,1.785,1.447,3.232,3.232,3.232c1.785,0,3.231-1.447,3.231-3.232
							c0-1.785-1.447-3.232-3.231-3.232C153.738,130.383,152.291,131.83,152.291,133.615z"/>
						<path style="fill:#282860;" d="M159.828,125.735c-0.245-1.03-10.313-0.331-11.083,0.805
							C147.975,127.676,160.4,128.138,159.828,125.735z"/>
					</g>
				</g>
				<g>
					<g>
						<path style="fill:#FFC8AF;" d="M200.164,127.584c4.389-0.453,4.918,10.731-2.037,11.262c0,0-0.384-2.274,0-5.637
							C198.567,129.36,200.164,127.584,200.164,127.584z"/>
						<path style="fill:#F4B298;" d="M199.479,136.088c-0.285-0.494,0.662-0.567,0.686-1.446c0.023-0.879-0.771-1.191-0.487-2.183
							c0.284-0.992,0.822-3.232,1.899-2.41c1.077,0.822,0.34,4.337-0.51,5.358C200.216,136.428,199.654,136.392,199.479,136.088z"/>
					</g>
					<g>
						<path style="fill:#FFC8AF;" d="M135.91,127.584c-4.389-0.453-4.918,10.731,2.037,11.262c0,0,0.384-2.274,0-5.637
							C137.507,129.36,135.91,127.584,135.91,127.584z"/>
						<path style="fill:#F4B298;" d="M136.596,136.088c0.285-0.494-0.662-0.567-0.686-1.446c-0.023-0.879,0.771-1.191,0.487-2.183
							c-0.283-0.992-0.822-3.232-1.899-2.41c-1.077,0.822-0.34,4.337,0.51,5.358C135.859,136.428,136.42,136.392,136.596,136.088z"
							/>
					</g>
				</g>
				<g>
					<path style="fill:#F4B298;" d="M175.062,127.468c-2.07-0.385-2.976,5.306-2.764,6.582
						C172.511,135.325,177.401,127.902,175.062,127.468z"/>
					<path style="fill:#F4B298;" d="M161.012,127.468c2.07-0.385,2.976,5.306,2.764,6.582
						C163.563,135.325,158.674,127.902,161.012,127.468z"/>
				</g>
				<path style="fill:#F7ECDF;" d="M170.479,139.759c0.131,0.912,0.068,1.676-0.141,1.706c-0.209,0.03-0.485-0.685-0.617-1.597
					c-0.131-0.912-0.068-1.676,0.141-1.706C170.071,138.132,170.347,138.847,170.479,139.759z"/>
				<path style="fill:#282860;" d="M168.028,92.185c-1.248,0.032-2.485,0.108-3.695,0.231c-8.925,0.905-17.514,5.046-23.743,11.508
					c-1.769,1.835-3.133,3.684-4.25,5.943c-0.614,1.243-1.129,2.534-1.546,3.856c-1.003,3.177-1.619,6.561-1.6,9.902l2.693,4.213
					c2.125,3.966,2.568,7.691,2.568,7.691c1.407,0.228,2.534-1.142,2.042-2.48c-0.815-2.214-1.742-4.986-1.617-5.835
					c0.217-1.484,2.745-2.276,3.894-3.992c1.15-1.716-1.833-10.702,0-12.183c1.833-1.481,13.775-2.067,25.26-2.067
					c11.485,0,23.426,0.586,25.26,2.067c1.833,1.481-1.15,10.466,0,12.183c1.15,1.717,3.677,2.509,3.894,3.992
					c0.124,0.849-0.802,3.62-1.618,5.835c-0.492,1.338,0.635,2.708,2.042,2.48c0,0,0.444-3.725,2.568-7.691
					c2.183-3.415,3.169-5.609,2.208-9.767c-1.061-4.589-2.729-9.038-4.94-13.197c-0.924-1.738-1.734-3.85-3.697-4.59
					c-1.746-0.658-3.767-0.255-5.554-0.009c-0.74,0.102-0.899-2.335-1.159-2.796c-1.914-3.389-6.529-4.343-10.059-4.812
					C174.087,92.283,171.027,92.108,168.028,92.185z"/>
				<path style="fill:#282860;" d="M164.94,107.129c0,0-9.81,2.393-10.661,7.747c0,0-1.95-3.644,0-5.581l-3.998,2.277l1.096-5.241
					l12.429-0.797L164.94,107.129z"/>
				<path style="fill:#EC827D;" d="M157.879,148.244c0,0,2.544,5.746,10.16,5.746c7.617,0,10.16-5.746,10.16-5.746H157.879z"/>
				<path style="fill:#F0F5F7;" d="M158.793,149.692h18.493c0.634-0.829,0.914-1.448,0.914-1.448h-20.321
					C157.879,148.244,158.159,148.863,158.793,149.692z"/>
			</g>
			<polygon style="fill:#DCE8EF;" points="168.037,241.965 165.492,235.938 165.492,313.771 168.037,313.771 			"/>
			<circle style="fill:#DCE8EF;" cx="175.457" cy="252.217" r="3.16"/>
			<circle style="fill:#DCE8EF;" cx="175.457" cy="292.457" r="3.16"/>
			<polygon style="fill:#BEE1F4;" points="248.55,199.072 250.828,196.103 264.208,204.31 263.225,207.648 			"/>
			<polygon style="fill:#BEE1F4;" points="87.508,199.072 85.23,196.103 71.85,204.31 72.833,207.648 			"/>
			<polygon style="fill:#DCE8EF;" points="106.391,228.52 112.207,238.913 107.786,224.457 			"/>
			<polygon style="fill:#DCE8EF;" points="229.667,228.52 223.851,238.913 228.272,224.457 			"/>
		</g>
		<g>
			<rect x="78.616" y="302.812" style="fill:#DCE8EF;" width="341.859" height="16.006"/>
			<rect x="108.455" y="308.917" style="fill:#A5B7C6;" width="306.222" height="3.796"/>
			<polygon style="fill:#FD3476;" points="96.282,310.815 87.038,305.478 87.038,316.153 			"/>
			
				<linearGradient id="SVGID_00000166635200598850894170000017494100662524004245_" gradientUnits="userSpaceOnUse" x1="241.0348" y1="310.8153" x2="250.8002" y2="310.8153">
				<stop  offset="0" style="stop-color:#DF697B"/>
				<stop  offset="1" style="stop-color:#BE2773"/>
			</linearGradient>
			<circle style="fill:url(#SVGID_00000166635200598850894170000017494100662524004245_);" cx="245.917" cy="310.815" r="4.883"/>
		</g>
		<g>
			
				<linearGradient id="SVGID_00000114055152063508482460000016247498618389550725_" gradientUnits="userSpaceOnUse" x1="76.5682" y1="109.4061" x2="76.5682" y2="163.474" gradientTransform="matrix(-1 0 0 1 172.1553 0)">
				<stop  offset="0" style="stop-color:#EFCF64"/>
				<stop  offset="1" style="stop-color:#F8985E"/>
			</linearGradient>
			<path style="fill:url(#SVGID_00000114055152063508482460000016247498618389550725_);" d="M122.168,109.406h-53.16
				c-3.664,0-6.645,2.982-6.645,6.645v26.58c0,3.664,2.981,6.645,6.645,6.645h28.279l15.943,14.197v-14.197h8.938
				c3.664,0,6.644-2.981,6.644-6.645v-26.58C128.812,112.388,125.832,109.406,122.168,109.406z"/>
			<g>
				
					<rect x="70.293" y="117.225" transform="matrix(-1 -1.224647e-16 1.224647e-16 -1 191.1742 236.5499)" style="fill:#D8D0BC;" width="50.588" height="2.101"/>
				
					<rect x="70.293" y="122.775" transform="matrix(-1 -1.224647e-16 1.224647e-16 -1 191.1742 247.6511)" style="fill:#D8D0BC;" width="50.588" height="2.101"/>
				
					<rect x="70.293" y="128.326" transform="matrix(-1 -1.224647e-16 1.224647e-16 -1 191.1742 258.7523)" style="fill:#D8D0BC;" width="50.588" height="2.101"/>
				
					<rect x="70.293" y="133.876" transform="matrix(-1 -1.224647e-16 1.224647e-16 -1 191.1742 269.8535)" style="fill:#D8D0BC;" width="50.588" height="2.101"/>
				
					<rect x="82.896" y="139.427" transform="matrix(-1 -1.224647e-16 1.224647e-16 -1 203.7774 280.9547)" style="fill:#D8D0BC;" width="37.985" height="2.101"/>
			</g>
		</g>
		<circle style="fill:#FD3476;" cx="84.622" cy="338.933" r="2.415"/>
	</g>
</g>
</svg>
