<?xml version="1.0" ?><!-- Uploaded to: SVG Repo, www.svgrepo.com, Generator: SVG Repo Mixer Tools -->
<svg width="800px" height="800px" viewBox="0 0 100 100" data-name="Layer 1" id="Layer_1" xmlns="http://www.w3.org/2000/svg"><defs><style>.cls-1{fill:none;stroke:#000000;stroke-linecap:round;stroke-linejoin:round;stroke-width:2px;}</style></defs><path class="cls-1" d="M72.87,41.5V80.6a4.19,4.19,0,0,1-4.18,4.19H31.31a4.19,4.19,0,0,1-4.18-4.19V41.5a15.69,15.69,0,0,1,9.11-14.25H63.76A15.69,15.69,0,0,1,72.87,41.5Z"/><path class="cls-1" d="M68.69,70.13v8.38a2.1,2.1,0,0,1-2.1,2.09H33.41a2.1,2.1,0,0,1-2.1-2.09V70.13Z"/><path class="cls-1" d="M68.69,41.5v.4H31.31v-.4a11.54,11.54,0,0,1,5.92-10.06H62.77A11.54,11.54,0,0,1,68.69,41.5Z"/><rect class="cls-1" height="28.23" width="45.75" x="27.13" y="41.9"/><rect class="cls-1" height="4.19" width="27.58" x="36.21" y="23.06"/><path class="cls-1" d="M36.51,15.21h27a2.62,2.62,0,0,1,2.62,2.62v5.23a0,0,0,0,1,0,0H33.89a0,0,0,0,1,0,0V17.83A2.62,2.62,0,0,1,36.51,15.21Z"/><polygon class="cls-1" points="58.33 52.48 58.33 59.55 53.53 59.55 53.53 64.34 46.47 64.34 46.47 59.55 41.67 59.55 41.67 52.48 46.47 52.48 46.47 47.69 53.53 47.69 53.53 52.48 58.33 52.48"/><line class="cls-1" x1="50" x2="50" y1="15.21" y2="23.06"/><line class="cls-1" x1="44.63" x2="44.63" y1="15.21" y2="23.06"/><line class="cls-1" x1="39.26" x2="39.26" y1="15.21" y2="23.06"/><line class="cls-1" x1="60.74" x2="60.74" y1="15.21" y2="23.06"/><line class="cls-1" x1="55.37" x2="55.37" y1="15.21" y2="23.06"/></svg>